<svg fill="none" height="32" viewBox="0 0 32 32" width="32" xmlns="http://www.w3.org/2000/svg"><g fill="#212121"><path d="m7.5 3.5c0-.27614.22386-.5.5-.5.66262 0 1.28338.32627 1.72855.77145.44515.44517.77145 1.06593.77145 1.72855 0 .27614-.2239.5-.5.5-.27614 0-.5-.22386-.5-.5 0-.33738-.17373-.71662-.47855-1.02145-.30483-.30482-.68407-.47855-1.02145-.47855-.27614 0-.5-.22386-.5-.5z"/>
<path d="m8.5 10.9576c1.01592-.1716 1.9488-.847 2.6407-1.71365.8113-1.01611 1.3593-2.37368 1.3593-3.74395 0-2.2343-1.6838-4.5-4.5-4.5-2.81621 0-4.5 2.2657-4.5 4.5 0 1.37027.54797 2.72784 1.35927 3.74395.69198.86665 1.62481 1.54205 2.64073 1.71365v.0424c0 1.1046.89543 2 2 2h1.5c.5523 0 1 .4477 1 1v.5c0 .2761.2239.5.5.5s.5-.2239.5-.5v-.5c0-1.1046-.8954-2-2-2h-1.5c-.55228 0-1-.4477-1-1zm-.5-8.9576c2.1838 0 3.5 1.7343 3.5 3.5 0 1.11501-.452 2.25744-1.1407 3.12001-.69587.87149-1.56642 1.37999-2.3593 1.37999s-1.66344-.5085-2.35927-1.37999c-.6887-.86257-1.14073-2.005-1.14073-3.12001 0-1.7657 1.31621-3.5 3.5-3.5z"/>
</g></svg>